<svg id="Layer_1" data-name="Layer 1" xmlns="http://www.w3.org/2000/svg" xmlns:xlink="http://www.w3.org/1999/xlink" viewBox="0 0 345.06 89.42"><defs><style>.cls-1{fill:none;clip-rule:evenodd;}.cls-2,.cls-3{fill:#243c7b;}.cls-3{fill-rule:evenodd;}.cls-4{clip-path:url(#clip-path);}.cls-5{fill:#08a7e0;}.cls-6{fill:#68cce7;}.cls-7{fill:#aedfe6;}</style><clipPath id="clip-path"><path class="cls-1" d="M28.31,19.58,170.08,46.29,48.23,76.88s6.55-2.66,9-4.07,5.93-3.75,7.6-5,7-5.18,7.87-12-5.18-12-7.16-13.72-17.27-11.88-21.7-14c-4.22-2.75-15.48-8.48-15.48-8.48"/></clipPath></defs><path class="cls-2" d="M101.09,87.8A43.3,43.3,0,0,1,69.85,74.39l-.59-.62,73.62-18.49-.23.83A43.2,43.2,0,0,1,101.09,87.8ZM71.18,74.32a42.09,42.09,0,0,0,70.27-17.65Z"/><path class="cls-2" d="M63.65,66.07l-.28-.51A43.21,43.21,0,0,1,58,44.71c0-1.43.07-2.88.21-4.31l.09-.83L59,40c2.65,1.79,4.58,3.16,5.17,3.66,1.77,1.52,7.16,6.14,6.41,11.83a13.8,13.8,0,0,1-3.19,7.06,19.55,19.55,0,0,1-3.27,3.12ZM59.13,41.35C59,42.46,59,43.59,59,44.71a42.17,42.17,0,0,0,5,19.85A17.73,17.73,0,0,0,66.61,62a12.91,12.91,0,0,0,3-6.55c.68-5.15-4.4-9.51-6.07-10.94C63,44,61.36,42.86,59.13,41.35Z"/><path class="cls-3" d="M28.31,19.58,170.08,46.29,48.23,76.88s6.55-2.66,9-4.07,5.93-3.75,7.6-5,7-5.18,7.87-12-5.18-12-7.16-13.72-17.27-11.88-21.7-14c-4.22-2.75-15.48-8.48-15.48-8.48"/><g class="cls-4"><path class="cls-5" d="M-24,74.24c66.47-6.12,132.34-16.3,197.27-32.66q-1.51,6.74-3,13.46C87.14,74,29.2,75.71-24,74.24"/><path class="cls-5" d="M-13.48,67.64A1155.89,1155.89,0,0,0,178,20.23L174.91,34C102.31,56.83,40.38,67-13.48,67.64"/><path class="cls-6" d="M-3.34,60.63c61.07-15.23,123.25-36.54,186.18-62q-1.54,6.93-3.1,13.86C113.08,38.62,51.4,55.85-3.34,60.63"/><path class="cls-7" d="M6.78,52.32C68.35,33.62,128.91,5.47,188.85-28.25l-3.81,17C113.26,24.4,52.43,47.22,6.78,52.32"/><path class="cls-6" d="M19.88,43.54C89,10.1,145.25-24.54,195.89-59.71q-2.1,9.36-4.19,18.72C134.27-4.33,77,26,19.88,43.54"/><path class="cls-5" d="M30,32.68c68-43,127-86.7,174.65-131.36q-2.55,11.45-5.12,22.88C143.09-27.13,85.35,6.4,30,32.68"/><path class="cls-5" d="M208.5-125.89l-19.24.5a843.35,843.35,0,0,1-71.87,77.2C91.27-23.3,65-1,38.73,21,96.3-17.87,153.41-61.37,208.5-125.89"/></g><path class="cls-2" d="M143.65,39.33,143,39.2,63.08,24.15l.35-.6a43.1,43.1,0,0,1,80.12,15.09Zm-79-15.9,77.81,14.66A42.1,42.1,0,0,0,64.65,23.43Z"/><path class="cls-2" d="M177.71,31.2V17.29h2.65l4.09,7.92h0l4.09-7.92h2.65V31.2H188.6V22.6h0l-3.25,6h-1.71l-3.23-6h0V31.2Z"/><path class="cls-2" d="M195.57,16.24a1.52,1.52,0,0,1-1.12-.46,1.6,1.6,0,0,1-.44-1.13,1.57,1.57,0,0,1,.44-1.11,1.58,1.58,0,0,1,2.23,0,1.54,1.54,0,0,1,.45,1.11,1.57,1.57,0,0,1-.45,1.13A1.52,1.52,0,0,1,195.57,16.24Zm-1.35,15V17.29h2.68V31.2Z"/><path class="cls-2" d="M199.89,31.2V17.29h2.68V28.76h5.9V31.2Z"/><path class="cls-2" d="M210.48,31.2V17.29h2.68V28.76h5.9V31.2Z"/><path class="cls-2" d="M222.49,16.24a1.48,1.48,0,0,1-1.11-.46,1.57,1.57,0,0,1-.45-1.13,1.54,1.54,0,0,1,.45-1.11,1.48,1.48,0,0,1,1.11-.46,1.52,1.52,0,0,1,1.11.46,1.54,1.54,0,0,1,.45,1.11,1.57,1.57,0,0,1-.45,1.13A1.52,1.52,0,0,1,222.49,16.24Zm-1.35,15V17.29h2.69V31.2Z"/><path class="cls-2" d="M176.55,53l4.94-13.91H184L189,53h-2.76l-.92-2.78h-5.11l-.9,2.78ZM181,47.84h3.61l-1.79-5.45h0Z"/><path class="cls-2" d="M193,53l-5-13.91h2.85l3.27,10h0l3.25-10h2.81L195.33,53Z"/><path class="cls-2" d="M203.47,38a1.46,1.46,0,0,1-1.11-.47,1.61,1.61,0,0,1,0-2.23,1.45,1.45,0,0,1,1.11-.46,1.48,1.48,0,0,1,1.11.46,1.61,1.61,0,0,1,0,2.23A1.49,1.49,0,0,1,203.47,38Zm-1.35,15V39.06h2.69V53Z"/><path class="cls-2" d="M206.65,53l4.93-13.91h2.56l5,13.91h-2.76l-.92-2.78h-5.1l-.9,2.78Zm4.41-5.13h3.6l-1.78-5.45h0Z"/><path class="cls-2" d="M224.84,53.15A6.44,6.44,0,0,1,220,50.94l1.59-2a5.15,5.15,0,0,0,1.61,1.29,3.77,3.77,0,0,0,1.72.45,2.12,2.12,0,0,0,1.4-.4,1.45,1.45,0,0,0,0-2.18,6.74,6.74,0,0,0-1.81-.87c-.47-.17-.88-.33-1.21-.48a9.09,9.09,0,0,1-1.07-.59,4.41,4.41,0,0,1-.93-.8,3.51,3.51,0,0,1-.59-1,4,4,0,0,1-.23-1.41,3.68,3.68,0,0,1,1.24-2.81,4.38,4.38,0,0,1,3-1.16,6.81,6.81,0,0,1,4.5,1.76l-1.54,2.08a4.7,4.7,0,0,0-2.91-1.38,1.71,1.71,0,0,0-1.15.38,1.28,1.28,0,0,0-.46,1,1.14,1.14,0,0,0,.48,1,9.42,9.42,0,0,0,1.77.88,15.69,15.69,0,0,1,2.7,1.29,3.39,3.39,0,0,1,1.45,3,4,4,0,0,1-.75,2.46A4.24,4.24,0,0,1,227,52.73,5.78,5.78,0,0,1,224.84,53.15Z"/><path class="cls-2" d="M233.18,38a1.46,1.46,0,0,1-1.12-.47,1.63,1.63,0,0,1,0-2.23,1.46,1.46,0,0,1,1.12-.46,1.47,1.47,0,0,1,1.1.46,1.61,1.61,0,0,1,0,2.23A1.48,1.48,0,0,1,233.18,38Zm-1.36,15V39.06h2.69V53Z"/><path class="cls-2" d="M240.61,53V46.86l-4.41-7.8h3l2.72,5.06h0l2.67-5.06h3.06l-4.43,7.8V53Z"/><path class="cls-2" d="M246.66,53l4.93-13.91h2.56l5,13.91h-2.76l-.92-2.78h-5.1l-.9,2.78Zm4.41-5.13h3.6l-1.78-5.45h0Z"/><path class="cls-2" d="M176.55,74.74l4.94-13.91H184l5,13.91h-2.76L185.32,72h-5.11l-.9,2.78ZM181,69.61h3.61l-1.79-5.45h0Z"/><path class="cls-2" d="M190.72,74.74V60.83h2.65v6.09h0L198,60.83h3.36L196.41,67l5.09,7.78h-3.26l-3.57-5.58-1.3,1.6v4Z"/><path class="cls-2" d="M202,74.74l4.94-13.91h2.55l5,13.91h-2.76L210.72,72h-5.11l-.9,2.78Zm4.42-5.13H210l-1.78-5.45h0Z"/><path class="cls-2" d="M216.13,74.74V60.83h4.41a6.71,6.71,0,0,1,5,1.93,7.7,7.7,0,0,1,.05,10.07,6.69,6.69,0,0,1-5,1.91Zm2.61-2.45h1.69A4,4,0,0,0,223.52,71a4.54,4.54,0,0,0,1.19-3.21,4.65,4.65,0,0,0-1.17-3.25,3.82,3.82,0,0,0-3-1.28h-1.84Z"/><path class="cls-2" d="M229.8,74.74V60.83h8.52v2.45h-5.91v3.35h4.73V69h-4.73v3.25h6.3v2.45Z"/><path class="cls-2" d="M241,74.74V60.83h2.65l4.09,7.92h0l4.09-7.92h2.65V74.74h-2.63v-8.6h0l-3.24,6h-1.71l-3.23-6h0v8.62Z"/><path class="cls-2" d="M258.9,59.77a1.47,1.47,0,0,1-1.12-.46,1.63,1.63,0,0,1,0-2.23,1.57,1.57,0,0,1,2.22,0,1.61,1.61,0,0,1,0,2.23A1.47,1.47,0,0,1,258.9,59.77Zm-1.36,15V60.83h2.69V74.74Z"/><path class="cls-2" d="M266.33,74.74V68.63l-4.41-7.8h3l2.72,5.06h0l2.67-5.06h3.06L269,68.63v6.11Z"/><path class="cls-2" d="M272.38,74.74l4.94-13.91h2.55l5,13.91h-2.76L281.15,72H276l-.9,2.78Zm4.41-5.13h3.6l-1.78-5.45h0Z"/><path class="cls-2" d="M290.57,74.92a6.41,6.41,0,0,1-4.86-2.22l1.59-2A5.15,5.15,0,0,0,288.91,72a3.81,3.81,0,0,0,1.72.45A2.12,2.12,0,0,0,292,72a1.31,1.31,0,0,0,.49-1.07,1.35,1.35,0,0,0-.49-1.12,7.06,7.06,0,0,0-1.82-.86c-.47-.17-.88-.33-1.21-.48a8,8,0,0,1-1.07-.6,4.11,4.11,0,0,1-.93-.79,3.45,3.45,0,0,1-.59-1.06,3.92,3.92,0,0,1-.23-1.4,3.66,3.66,0,0,1,1.24-2.81,4.43,4.43,0,0,1,3-1.17,6.77,6.77,0,0,1,4.5,1.77l-1.54,2.07a4.73,4.73,0,0,0-2.91-1.37,1.71,1.71,0,0,0-1.15.38,1.26,1.26,0,0,0-.46,1,1.12,1.12,0,0,0,.48,1,9.29,9.29,0,0,0,1.77.89,16.32,16.32,0,0,1,2.71,1.29,3.39,3.39,0,0,1,1.44,3,4,4,0,0,1-.75,2.46,4.24,4.24,0,0,1-1.78,1.43A5.78,5.78,0,0,1,290.57,74.92Z"/><path class="cls-2" d="M297.55,74.74V60.83h2.69V74.74Z"/></svg>